<svg width="18" height="24" viewBox="0 0 18 24" fill="none" xmlns="http://www.w3.org/2000/svg">
<path d="M17.9954 20.746L16.7077 5.27117C16.6801 4.92761 16.4088 4.66748 16.0915 4.66748H13.4425C13.4057 2.08589 11.4282 0 9 0C6.57179 0 4.59428 2.08589 4.55749 4.66748H1.90853C1.58661 4.66748 1.31988 4.92761 1.29228 5.27117L0.00459898 20.746C0.00459898 20.7656 0 20.7853 0 20.8049C0 22.5669 1.51303 24 3.37557 24H14.6244C16.487 24 18 22.5669 18 20.8049C18 20.7853 18 20.7656 17.9954 20.746ZM9 1.32515C10.743 1.32515 12.164 2.81718 12.2008 4.66748H5.79918C5.83597 2.81718 7.25703 1.32515 9 1.32515ZM14.6244 22.6748H3.37557C2.20746 22.6748 1.26009 21.8503 1.2417 20.8344L2.4742 5.99755H4.55289V8.00982C4.55289 8.37791 4.82882 8.67239 5.17374 8.67239C5.51865 8.67239 5.79458 8.37791 5.79458 8.00982V5.99755H12.2008V8.00982C12.2008 8.37791 12.4768 8.67239 12.8217 8.67239C13.1666 8.67239 13.4425 8.37791 13.4425 8.00982V5.99755H15.5212L16.7583 20.8344C16.7399 21.8503 15.7879 22.6748 14.6244 22.6748Z" fill="black"/>
</svg>
