<svg width="141" height="37" viewBox="0 0 141 37" fill="none" xmlns="http://www.w3.org/2000/svg">
<path d="M13.2656 20.5781H4.57031L4.52344 16.2891H12.1172C13.3984 16.2891 14.4844 16.1016 15.375 15.7266C16.2812 15.3359 16.9688 14.7812 17.4375 14.0625C17.9062 13.3281 18.1406 12.4453 18.1406 11.4141C18.1406 10.2734 17.9219 9.34375 17.4844 8.625C17.0469 7.90625 16.375 7.38281 15.4688 7.05469C14.5781 6.72656 13.4375 6.5625 12.0469 6.5625H6.35156V36H0.46875V1.875H12.0469C13.9219 1.875 15.5938 2.05469 17.0625 2.41406C18.5469 2.77344 19.8047 3.33594 20.8359 4.10156C21.8828 4.85156 22.6719 5.80469 23.2031 6.96094C23.75 8.11719 24.0234 9.49219 24.0234 11.0859C24.0234 12.4922 23.6875 13.7812 23.0156 14.9531C22.3438 16.1094 21.3516 17.0547 20.0391 17.7891C18.7266 18.5234 17.0938 18.9609 15.1406 19.1016L13.2656 20.5781ZM13.0078 36H2.71875L5.36719 31.3359H13.0078C14.3359 31.3359 15.4453 31.1172 16.3359 30.6797C17.2266 30.2266 17.8906 29.6094 18.3281 28.8281C18.7812 28.0312 19.0078 27.1016 19.0078 26.0391C19.0078 24.9297 18.8125 23.9688 18.4219 23.1562C18.0312 22.3281 17.4141 21.6953 16.5703 21.2578C15.7266 20.8047 14.625 20.5781 13.2656 20.5781H6.65625L6.70312 16.2891H15.3047L16.6406 17.9062C18.5156 17.9688 20.0547 18.3828 21.2578 19.1484C22.4766 19.9141 23.3828 20.9062 23.9766 22.125C24.5703 23.3438 24.8672 24.6562 24.8672 26.0625C24.8672 28.2344 24.3906 30.0547 23.4375 31.5234C22.5 32.9922 21.1484 34.1094 19.3828 34.875C17.6172 35.625 15.4922 36 13.0078 36Z" fill="#8CC32E"/>
<path d="M36.2812 10.6406V36H30.6094V10.6406H36.2812ZM30.2344 3.98438C30.2344 3.125 30.5156 2.41406 31.0781 1.85156C31.6562 1.27344 32.4531 0.984375 33.4688 0.984375C34.4688 0.984375 35.2578 1.27344 35.8359 1.85156C36.4141 2.41406 36.7031 3.125 36.7031 3.98438C36.7031 4.82812 36.4141 5.53125 35.8359 6.09375C35.2578 6.65625 34.4688 6.9375 33.4688 6.9375C32.4531 6.9375 31.6562 6.65625 31.0781 6.09375C30.5156 5.53125 30.2344 4.82812 30.2344 3.98438ZM48.0703 16.0547V36H42.4219V10.6406H47.7422L48.0703 16.0547ZM47.0625 22.3828L45.2344 22.3594C45.25 20.5625 45.5 18.9141 45.9844 17.4141C46.4844 15.9141 47.1719 14.625 48.0469 13.5469C48.9375 12.4688 50 11.6406 51.2344 11.0625C52.4688 10.4688 53.8438 10.1719 55.3594 10.1719C56.5781 10.1719 57.6797 10.3437 58.6641 10.6875C59.6641 11.0156 60.5156 11.5547 61.2188 12.3047C61.9375 13.0547 62.4844 14.0312 62.8594 15.2344C63.2344 16.4219 63.4219 17.8828 63.4219 19.6172V36H57.75V19.5938C57.75 18.375 57.5703 17.4141 57.2109 16.7109C56.8672 15.9922 56.3594 15.4844 55.6875 15.1875C55.0312 14.875 54.2109 14.7188 53.2266 14.7188C52.2578 14.7188 51.3906 14.9219 50.625 15.3281C49.8594 15.7344 49.2109 16.2891 48.6797 16.9922C48.1641 17.6953 47.7656 18.5078 47.4844 19.4297C47.2031 20.3516 47.0625 21.3359 47.0625 22.3828ZM68.1094 23.6016V23.0625C68.1094 21.2344 68.375 19.5391 68.9062 17.9766C69.4375 16.3984 70.2031 15.0312 71.2031 13.875C72.2188 12.7031 73.4531 11.7969 74.9062 11.1562C76.375 10.5 78.0312 10.1719 79.875 10.1719C81.7344 10.1719 83.3906 10.5 84.8438 11.1562C86.3125 11.7969 87.5547 12.7031 88.5703 13.875C89.5859 15.0312 90.3594 16.3984 90.8906 17.9766C91.4219 19.5391 91.6875 21.2344 91.6875 23.0625V23.6016C91.6875 25.4297 91.4219 27.125 90.8906 28.6875C90.3594 30.25 89.5859 31.6172 88.5703 32.7891C87.5547 33.9453 86.3203 34.8516 84.8672 35.5078C83.4141 36.1484 81.7656 36.4688 79.9219 36.4688C78.0625 36.4688 76.3984 36.1484 74.9297 35.5078C73.4766 34.8516 72.2422 33.9453 71.2266 32.7891C70.2109 31.6172 69.4375 30.25 68.9062 28.6875C68.375 27.125 68.1094 25.4297 68.1094 23.6016ZM73.7578 23.0625V23.6016C73.7578 24.7422 73.875 25.8203 74.1094 26.8359C74.3438 27.8516 74.7109 28.7422 75.2109 29.5078C75.7109 30.2734 76.3516 30.875 77.1328 31.3125C77.9141 31.75 78.8438 31.9688 79.9219 31.9688C80.9688 31.9688 81.875 31.75 82.6406 31.3125C83.4219 30.875 84.0625 30.2734 84.5625 29.5078C85.0625 28.7422 85.4297 27.8516 85.6641 26.8359C85.9141 25.8203 86.0391 24.7422 86.0391 23.6016V23.0625C86.0391 21.9375 85.9141 20.875 85.6641 19.875C85.4297 18.8594 85.0547 17.9609 84.5391 17.1797C84.0391 16.3984 83.3984 15.7891 82.6172 15.3516C81.8516 14.8984 80.9375 14.6719 79.875 14.6719C78.8125 14.6719 77.8906 14.8984 77.1094 15.3516C76.3438 15.7891 75.7109 16.3984 75.2109 17.1797C74.7109 17.9609 74.3438 18.8594 74.1094 19.875C73.875 20.875 73.7578 21.9375 73.7578 23.0625ZM104.297 31.5234L110.508 10.6406H116.367L107.555 36H103.898L104.297 31.5234ZM99.5391 10.6406L105.867 31.6172L106.172 36H102.516L93.6562 10.6406H99.5391ZM133.781 30.9141V18.8203C133.781 17.9141 133.617 17.1328 133.289 16.4766C132.961 15.8203 132.461 15.3125 131.789 14.9531C131.133 14.5938 130.305 14.4141 129.305 14.4141C128.383 14.4141 127.586 14.5703 126.914 14.8828C126.242 15.1953 125.719 15.6172 125.344 16.1484C124.969 16.6797 124.781 17.2812 124.781 17.9531H119.156C119.156 16.9531 119.398 15.9844 119.883 15.0469C120.367 14.1094 121.07 13.2734 121.992 12.5391C122.914 11.8047 124.016 11.2266 125.297 10.8047C126.578 10.3828 128.016 10.1719 129.609 10.1719C131.516 10.1719 133.203 10.4922 134.672 11.1328C136.156 11.7734 137.32 12.7422 138.164 14.0391C139.023 15.3203 139.453 16.9297 139.453 18.8672V30.1406C139.453 31.2969 139.531 32.3359 139.688 33.2578C139.859 34.1641 140.102 34.9531 140.414 35.625V36H134.625C134.359 35.3906 134.148 34.6172 133.992 33.6797C133.852 32.7266 133.781 31.8047 133.781 30.9141ZM134.602 20.5781L134.648 24.0703H130.594C129.547 24.0703 128.625 24.1719 127.828 24.375C127.031 24.5625 126.367 24.8438 125.836 25.2188C125.305 25.5938 124.906 26.0469 124.641 26.5781C124.375 27.1094 124.242 27.7109 124.242 28.3828C124.242 29.0547 124.398 29.6719 124.711 30.2344C125.023 30.7812 125.477 31.2109 126.07 31.5234C126.68 31.8359 127.414 31.9922 128.273 31.9922C129.43 31.9922 130.438 31.7578 131.297 31.2891C132.172 30.8047 132.859 30.2188 133.359 29.5312C133.859 28.8281 134.125 28.1641 134.156 27.5391L135.984 30.0469C135.797 30.6875 135.477 31.375 135.023 32.1094C134.57 32.8438 133.977 33.5469 133.242 34.2188C132.523 34.875 131.656 35.4141 130.641 35.8359C129.641 36.2578 128.484 36.4688 127.172 36.4688C125.516 36.4688 124.039 36.1406 122.742 35.4844C121.445 34.8125 120.43 33.9141 119.695 32.7891C118.961 31.6484 118.594 30.3594 118.594 28.9219C118.594 27.5781 118.844 26.3906 119.344 25.3594C119.859 24.3125 120.609 23.4375 121.594 22.7344C122.594 22.0312 123.812 21.5 125.25 21.1406C126.688 20.7656 128.328 20.5781 130.172 20.5781H134.602Z" fill="black"/>
</svg>
